<?xml version="1.0" encoding="UTF-8"?>
<!DOCTYPE svg PUBLIC "-//W3C//DTD SVG 1.1//EN" "http://www.w3.org/Graphics/SVG/1.1/DTD/svg11.dtd">
<svg xmlns="http://www.w3.org/2000/svg" version="1.1" width="500px" height="500px" style="shape-rendering:geometricPrecision; text-rendering:geometricPrecision; image-rendering:optimizeQuality; fill-rule:evenodd; clip-rule:evenodd" xmlns:xlink="http://www.w3.org/1999/xlink">
<g><path style="opacity:1" fill="#fffefe" d="M -0.5,-0.5 C 166.167,-0.5 332.833,-0.5 499.5,-0.5C 499.5,166.167 499.5,332.833 499.5,499.5C 332.833,499.5 166.167,499.5 -0.5,499.5C -0.5,332.833 -0.5,166.167 -0.5,-0.5 Z"/></g>
<g><path style="opacity:1" fill="#fee18a" d="M 258.5,49.5 C 293.792,48.5997 326.126,58.0997 355.5,78C 342.876,72.5563 330.21,66.8896 317.5,61C 310.5,60 303.5,59 296.5,58C 283.889,54.8467 271.222,52.0134 258.5,49.5 Z"/></g>
<g><path style="opacity:1" fill="#fee086" d="M 80.5,191.5 C 79.9033,191.265 79.5699,190.765 79.5,190C 81.4498,185.968 82.6165,181.801 83,177.5C 79.4403,184.073 77.2737,191.073 76.5,198.5C 72.1503,214.091 68.817,229.924 66.5,246C 69.516,262.415 72.016,278.915 74,295.5C 84.2599,316.371 95.7599,336.371 108.5,355.5C 107.206,354.71 106.039,353.71 105,352.5C 103.385,353.656 103.385,354.989 105,356.5C 115.809,366.298 126.643,376.798 137.5,388C 146.528,393.844 155.528,399.677 164.5,405.5C 168.972,408.573 173.639,411.407 178.5,414C 191.424,418.864 204.424,423.53 217.5,428C 210.095,426.984 202.761,425.317 195.5,423C 186.167,419 176.833,415 167.5,411C 155.5,403 143.5,395 131.5,387C 118.549,374.389 106.716,360.889 96,346.5C 95.7188,344.095 96.3854,344.095 98,346.5C 90.7445,334.016 83.4112,321.349 76,308.5C 72.3333,298.833 68.6667,289.167 65,279.5C 64.7408,281.991 64.9075,284.491 65.5,287C 65.3333,288.167 65.1667,289.333 65,290.5C 62.8134,285.613 60.8134,280.613 59,275.5C 58.6668,258.16 59.0001,240.827 60,223.5C 64.6222,208.345 68.6222,193.012 72,177.5C 76.6104,166.612 80.9438,155.612 85,144.5C 90.9009,135.263 97.5675,126.596 105,118.5C 105.333,119.167 105.667,119.833 106,120.5C 113.462,111.369 121.295,102.536 129.5,94C 143.627,86.7704 157.294,78.7704 170.5,70C 181.381,64.726 192.381,59.726 203.5,55C 209.405,53.345 215.405,52.6784 221.5,53C 215.72,54.2599 210.053,55.9266 204.5,58C 219.222,56.8264 233.888,54.9931 248.5,52.5C 259.382,54.6993 270.382,55.866 281.5,56C 286.256,57.0224 290.923,58.3557 295.5,60C 290.991,60.2917 286.658,59.4584 282.5,57.5C 269.188,58.2356 255.855,57.9023 242.5,56.5C 229.882,59.1902 217.215,61.6902 204.5,64C 201.417,65.1392 198.417,66.4725 195.5,68C 196.167,68.3333 196.833,68.6667 197.5,69C 177.233,77.2841 157.9,87.2841 139.5,99C 128.695,111.141 117.862,123.308 107,135.5C 106.667,134.833 106.333,134.167 106,133.5C 100.889,139.382 97.056,146.049 94.5,153.5C 95.1667,153.833 95.8333,154.167 96.5,154.5C 93.227,160.712 90.227,167.046 87.5,173.5C 87.7093,174.086 88.0426,174.586 88.5,175C 85.4192,180.328 82.7525,185.828 80.5,191.5 Z"/></g>
<g><path style="opacity:1" fill="#fdde80" d="M 384.5,108.5 C 379.11,105.29 374.11,101.456 369.5,97C 368.833,96.3333 368.167,96.3333 367.5,97C 369.422,98.4196 370.755,100.253 371.5,102.5C 376.919,107.265 382.586,111.598 388.5,115.5C 389.728,117.856 390.728,120.189 391.5,122.5C 391.03,123.463 390.363,123.463 389.5,122.5C 387.925,119.418 385.758,116.751 383,114.5C 382.667,115.167 382.333,115.833 382,116.5C 378.466,112.631 374.633,109.131 370.5,106C 355.339,97.9203 340.339,89.587 325.5,81C 309.898,77.1798 294.231,73.6798 278.5,70.5C 277.726,69.8529 276.726,69.5195 275.5,69.5C 271.976,69.9006 268.642,70.5672 265.5,71.5C 262.09,71.4571 258.757,71.9571 255.5,73C 259.219,73.3884 262.886,74.0551 266.5,75C 265.167,75.3333 263.833,75.6667 262.5,76C 266.623,76.4366 270.623,75.9366 274.5,74.5C 276.102,76.0739 278.102,76.7406 280.5,76.5C 295.436,80.7544 310.436,84.921 325.5,89C 328.429,89.7772 331.263,89.6105 334,88.5C 339.752,91.9598 345.585,95.2931 351.5,98.5C 356.7,103.866 362.367,108.699 368.5,113C 375.084,121.307 382.25,129.141 390,136.5C 388.935,133.288 388.268,129.955 388,126.5C 389.833,130.167 391.667,133.833 393.5,137.5C 392.833,137.833 392.167,138.167 391.5,138.5C 393.274,141.715 394.774,145.048 396,148.5C 396.654,149.696 397.154,149.696 397.5,148.5C 396.487,145.436 395.654,142.436 395,139.5C 401.966,149.791 409.633,159.458 418,168.5C 422.333,179.5 426.667,190.5 431,201.5C 431.667,203.167 431.667,204.833 431,206.5C 430,204.167 429,201.833 428,199.5C 427.346,198.304 426.846,198.304 426.5,199.5C 428.099,204.465 429.599,209.465 431,214.5C 431.413,211.768 432.08,209.101 433,206.5C 432.954,209.8 432.788,213.134 432.5,216.5C 432.607,218.379 432.107,218.712 431,217.5C 432.312,243.096 429.145,268.096 421.5,292.5C 420.095,294.225 419.595,296.225 420,298.5C 420.667,297.167 421.333,295.833 422,294.5C 422.576,296.377 422.409,298.211 421.5,300C 421.667,300.5 421.833,301 422,301.5C 422.278,300.584 422.778,299.918 423.5,299.5C 423.509,301.308 423.009,302.975 422,304.5C 421.333,301.833 420.667,301.833 420,304.5C 419.187,306.436 418.687,308.436 418.5,310.5C 417.022,310.238 415.689,310.571 414.5,311.5C 410.155,320.855 405.822,330.188 401.5,339.5C 403.156,337.54 404.823,335.54 406.5,333.5C 407.043,333.56 407.376,333.893 407.5,334.5C 405.168,338.094 403.835,341.761 403.5,345.5C 405.15,345.599 406.483,344.599 407.5,342.5C 411.716,340.072 413.882,336.405 414,331.5C 413.148,332.571 412.315,333.571 411.5,334.5C 411.631,333.761 411.464,333.094 411,332.5C 410.581,333.672 409.915,334.672 409,335.5C 408.878,333.718 409.378,332.052 410.5,330.5C 416.361,319.786 421.361,308.786 425.5,297.5C 426.924,295.485 427.59,293.152 427.5,290.5C 431.098,280.795 434.098,270.795 436.5,260.5C 436.333,259.5 436.167,258.5 436,257.5C 434.584,263.416 432.584,269.082 430,274.5C 429.955,266.096 430.789,257.762 432.5,249.5C 433.097,241.847 433.597,234.18 434,226.5C 435.737,230.649 436.737,234.983 437,239.5C 438.262,235.687 438.929,231.687 439,227.5C 440.095,226.307 440.928,224.973 441.5,223.5C 441.833,223.5 442.167,223.5 442.5,223.5C 442.194,226.385 442.527,229.052 443.5,231.5C 445.15,237.283 444.817,242.949 442.5,248.5C 443.989,253.255 443.823,257.922 442,262.5C 441.667,261.833 441.333,261.167 441,260.5C 440.564,262.847 440.064,265.181 439.5,267.5C 440.167,269.833 440.833,272.167 441.5,274.5C 439.87,280.483 438.703,286.483 438,292.5C 438.556,290.405 439.056,290.238 439.5,292C 437.05,300.019 434.217,307.853 431,315.5C 432.628,308.442 434.795,301.442 437.5,294.5C 437.154,293.304 436.654,293.304 436,294.5C 434,299.833 432,305.167 430,310.5C 429.627,317.66 427.96,324.66 425,331.5C 424.667,329.833 424.333,328.167 424,326.5C 418.42,333.992 413.087,341.659 408,349.5C 407.873,350.777 408.373,351.943 409.5,353C 406.727,357.607 403.393,361.774 399.5,365.5C 396.833,367.5 394.5,369.833 392.5,372.5C 395.764,370.906 398.431,368.573 400.5,365.5C 414.263,351.316 427.096,336.316 439,320.5C 439.654,319.304 440.154,319.304 440.5,320.5C 435.682,330.136 430.849,339.802 426,349.5C 415.772,358.521 406.272,367.521 397.5,376.5C 397.103,375.475 396.437,375.308 395.5,376C 392.938,378.733 390.271,381.233 387.5,383.5C 378.875,388.821 370.542,394.655 362.5,401C 346.229,406.535 329.896,411.868 313.5,417C 311.004,418.08 308.67,419.414 306.5,421C 290.853,422.268 275.186,423.101 259.5,423.5C 259.881,422.069 260.881,421.236 262.5,421C 261.207,420.51 259.873,420.343 258.5,420.5C 248.155,419.878 237.822,419.044 227.5,418C 214.24,413.469 200.906,409.136 187.5,405C 175.5,397.667 163.5,390.333 151.5,383C 140.669,373.169 130.169,363.003 120,352.5C 113.58,342.659 106.913,332.993 100,323.5C 92.4852,308.943 86.1518,293.943 81,278.5C 76.0319,245.589 78.6986,213.255 89,181.5C 90.3311,175.836 92.4977,170.503 95.5,165.5C 96.5,164.167 97.5,164.167 98.5,165.5C 94.5961,175.704 91.4295,186.038 89,196.5C 94.1135,182.273 99.7801,168.273 106,154.5C 113.245,145.01 120.245,135.344 127,125.5C 128.371,123.959 129.871,122.625 131.5,121.5C 132.675,121.281 133.675,121.614 134.5,122.5C 133.167,123.5 133.167,124.5 134.5,125.5C 132.851,127.65 131.018,129.65 129,131.5C 128.333,132.167 128.333,132.833 129,133.5C 131.782,131.229 133.949,128.563 135.5,125.5C 139.298,122.204 142.964,118.704 146.5,115C 144.035,115.565 141.702,116.732 139.5,118.5C 139.167,118.333 138.833,118.167 138.5,118C 139.5,117 140.5,116 141.5,115C 140.906,114.536 140.239,114.369 139.5,114.5C 149.056,103.079 160.389,94.2453 173.5,88C 172.5,89 171.5,90 170.5,91C 171.094,91.4643 171.761,91.631 172.5,91.5C 173.332,92.3285 172.999,93.1618 171.5,94C 168.102,95.3571 165.102,97.1904 162.5,99.5C 161.448,99.3505 160.448,99.5172 159.5,100C 157.627,102.209 155.46,104.042 153,105.5C 152.667,105.167 152.333,104.833 152,104.5C 149.78,107.021 147.28,109.188 144.5,111C 145.466,112.678 146.799,113.345 148.5,113C 152.714,108.283 157.381,104.117 162.5,100.5C 168.229,97.9744 173.896,95.141 179.5,92C 178.906,91.5357 178.239,91.369 177.5,91.5C 178.517,89.0887 180.184,87.422 182.5,86.5C 202.113,78.7436 221.78,71.4103 241.5,64.5C 263.49,64.1007 285.49,64.934 307.5,67C 321.5,73 335.5,79 349.5,85C 354.005,86.7492 358.005,89.2492 361.5,92.5C 361.5,91.5 361.5,90.5 361.5,89.5C 371.3,93.3047 378.967,99.6381 384.5,108.5 Z"/></g>
<g><path style="opacity:1" fill="#fff7e1" d="M 241.5,64.5 C 221.78,71.4103 202.113,78.7436 182.5,86.5C 200.274,76.4041 219.108,68.7374 239,63.5C 239.902,63.7432 240.735,64.0766 241.5,64.5 Z"/></g>
<g><path style="opacity:1" fill="#fdfaf0" d="M 265.5,71.5 C 269.273,71.2633 272.94,71.7633 276.5,73C 275.584,73.2784 274.918,73.7784 274.5,74.5C 270.623,75.9366 266.623,76.4366 262.5,76C 263.833,75.6667 265.167,75.3333 266.5,75C 262.886,74.0551 259.219,73.3884 255.5,73C 258.757,71.9571 262.09,71.4571 265.5,71.5 Z"/></g>
<g><path style="opacity:1" fill="#fee59b" d="M 278.5,70.5 C 277.448,70.3505 276.448,70.5172 275.5,71C 294.001,74.1665 312.001,79.1665 329.5,86C 314.741,82.9695 300.074,79.3028 285.5,75C 282.833,74.3333 280.167,74.3333 277.5,75C 278.737,75.2321 279.737,75.7321 280.5,76.5C 278.102,76.7406 276.102,76.0739 274.5,74.5C 274.918,73.7784 275.584,73.2784 276.5,73C 272.94,71.7633 269.273,71.2633 265.5,71.5C 268.642,70.5672 271.976,69.9006 275.5,69.5C 276.726,69.5195 277.726,69.8529 278.5,70.5 Z"/></g>
<g><path style="opacity:1" fill="#fee9a9" d="M 191.5,73.5 C 193.527,73.3379 195.527,73.5045 197.5,74C 188.47,79.5442 179.137,83.2109 169.5,85C 176.769,80.8674 184.102,77.034 191.5,73.5 Z"/></g>
<g><path style="opacity:1" fill="#fdebb5" d="M 259.5,80.5 C 267.951,80.1988 276.285,81.0321 284.5,83C 279.149,83.055 273.815,82.555 268.5,81.5C 260.518,82.5325 252.518,82.6991 244.5,82C 249.684,81.8261 254.684,81.3261 259.5,80.5 Z"/></g>
<g><path style="opacity:1" fill="#fff4d8" d="M 243.5,78.5 C 245.199,78.3398 246.866,78.5065 248.5,79C 242.51,80.9933 236.51,82.9933 230.5,85C 224.64,85.5874 218.64,86.2541 212.5,87C 222.867,84.0969 233.2,81.2636 243.5,78.5 Z"/></g>
<g><path style="opacity:1" fill="#f6e4b0" d="M 177.5,91.5 C 178.239,91.369 178.906,91.5357 179.5,92C 173.896,95.141 168.229,97.9744 162.5,100.5C 162.5,100.167 162.5,99.8333 162.5,99.5C 165.102,97.1904 168.102,95.3571 171.5,94C 172.999,93.1618 173.332,92.3285 172.5,91.5C 173.261,90.6091 174.261,89.9424 175.5,89.5C 176.696,89.8457 176.696,90.3457 175.5,91C 176.094,91.4643 176.761,91.631 177.5,91.5 Z"/></g>
<g><path style="opacity:1" fill="#feeec0" d="M 314.5,92.5 C 318.067,91.9647 321.734,92.4647 325.5,94C 321.69,94.5873 318.023,94.0873 314.5,92.5 Z"/></g>
<g><path style="opacity:1" fill="#fee290" d="M 149.5,94.5 C 151.745,94.5412 152.412,95.3745 151.5,97C 145.667,100.833 139.833,104.667 134,108.5C 134.893,105.564 136.726,103.064 139.5,101C 143.069,99.0583 146.402,96.8916 149.5,94.5 Z"/></g>
<g><path style="opacity:1" fill="#fff8e5" d="M 194.5,99.5 C 198.631,95.3806 203.631,93.214 209.5,93C 204.712,95.7293 199.712,97.896 194.5,99.5 Z"/></g>
<g><path style="opacity:1" fill="#fffdf8" d="M 194.5,99.5 C 196.042,100.163 197.709,100.83 199.5,101.5C 196.286,102.977 192.953,103.477 189.5,103C 190.833,102.333 190.833,101.667 189.5,101C 191.247,100.648 192.914,100.148 194.5,99.5 Z"/></g>
<g><path style="opacity:1" fill="#fff7e1" d="M 162.5,99.5 C 162.5,99.8333 162.5,100.167 162.5,100.5C 157.381,104.117 152.714,108.283 148.5,113C 146.799,113.345 145.466,112.678 144.5,111C 147.28,109.188 149.78,107.021 152,104.5C 152.333,104.833 152.667,105.167 153,105.5C 155.46,104.042 157.627,102.209 159.5,100C 160.448,99.5172 161.448,99.3505 162.5,99.5 Z"/></g>
<g><path style="opacity:1" fill="#fff1ca" d="M 384.5,108.5 C 386.525,110.196 388.525,111.863 390.5,113.5C 388.007,113.131 387.34,113.797 388.5,115.5C 382.586,111.598 376.919,107.265 371.5,102.5C 370.755,100.253 369.422,98.4196 367.5,97C 368.167,96.3333 368.833,96.3333 369.5,97C 374.11,101.456 379.11,105.29 384.5,108.5 Z"/></g>
<g><path style="opacity:1" fill="#fee28f" d="M 387.5,106.5 C 387.897,105.475 388.563,105.308 389.5,106C 397.077,111.406 402.577,118.239 406,126.5C 399.967,119.637 393.801,112.97 387.5,106.5 Z"/></g>
<g><path style="opacity:1" fill="#fff6de" d="M 139.5,114.5 C 140.239,114.369 140.906,114.536 141.5,115C 140.5,116 139.5,117 138.5,118C 138.833,118.167 139.167,118.333 139.5,118.5C 141.702,116.732 144.035,115.565 146.5,115C 142.964,118.704 139.298,122.204 135.5,125.5C 135.511,123.983 136.177,122.816 137.5,122C 136.095,120.731 134.429,120.231 132.5,120.5C 134.607,118.273 136.94,116.273 139.5,114.5 Z"/></g>
<g><path style="opacity:1" fill="#ffebb3" d="M 131.5,121.5 C 131.5,120.833 131.833,120.5 132.5,120.5C 134.429,120.231 136.095,120.731 137.5,122C 136.177,122.816 135.511,123.983 135.5,125.5C 133.949,128.563 131.782,131.229 129,133.5C 128.333,132.833 128.333,132.167 129,131.5C 131.018,129.65 132.851,127.65 134.5,125.5C 133.167,124.5 133.167,123.5 134.5,122.5C 133.675,121.614 132.675,121.281 131.5,121.5 Z"/></g>
<g><path style="opacity:1" fill="#fff4d7" d="M 352.5,129.5 C 352.897,128.475 353.563,128.308 354.5,129C 355.833,130.333 357.167,131.667 358.5,133C 357.833,133.667 357.167,133.667 356.5,133C 355.295,131.624 353.962,130.458 352.5,129.5 Z"/></g>
<g><path style="opacity:1" fill="#fffbf3" d="M 278.5,70.5 C 294.231,73.6798 309.898,77.1798 325.5,81C 340.339,89.587 355.339,97.9203 370.5,106C 374.633,109.131 378.466,112.631 382,116.5C 382.333,115.833 382.667,115.167 383,114.5C 385.758,116.751 387.925,119.418 389.5,122.5C 388.624,122.369 387.957,122.702 387.5,123.5C 391.197,128.698 394.697,134.031 398,139.5C 397.743,135.958 396.577,132.624 394.5,129.5C 395.145,128.268 395.311,126.935 395,125.5C 400.496,135.992 407.163,145.659 415,154.5C 417.986,162.466 421.486,170.133 425.5,177.5C 424.732,181.401 425.566,185.068 428,188.5C 428,186.5 428,184.5 428,182.5C 431.215,193.6 435.549,204.267 441,214.5C 441.498,217.482 441.665,220.482 441.5,223.5C 440.928,224.973 440.095,226.307 439,227.5C 438.929,231.687 438.262,235.687 437,239.5C 436.737,234.983 435.737,230.649 434,226.5C 433.597,234.18 433.097,241.847 432.5,249.5C 431.353,237.058 431.353,226.058 432.5,216.5C 432.788,213.134 432.954,209.8 433,206.5C 432.08,209.101 431.413,211.768 431,214.5C 429.599,209.465 428.099,204.465 426.5,199.5C 426.846,198.304 427.346,198.304 428,199.5C 429,201.833 430,204.167 431,206.5C 431.667,204.833 431.667,203.167 431,201.5C 426.667,190.5 422.333,179.5 418,168.5C 409.633,159.458 401.966,149.791 395,139.5C 395.654,142.436 396.487,145.436 397.5,148.5C 397.154,149.696 396.654,149.696 396,148.5C 394.774,145.048 393.274,141.715 391.5,138.5C 392.167,138.167 392.833,137.833 393.5,137.5C 391.667,133.833 389.833,130.167 388,126.5C 388.268,129.955 388.935,133.288 390,136.5C 382.25,129.141 375.084,121.307 368.5,113C 362.367,108.699 356.7,103.866 351.5,98.5C 345.585,95.2931 339.752,91.9598 334,88.5C 331.263,89.6105 328.429,89.7772 325.5,89C 310.436,84.921 295.436,80.7544 280.5,76.5C 279.737,75.7321 278.737,75.2321 277.5,75C 280.167,74.3333 282.833,74.3333 285.5,75C 300.074,79.3028 314.741,82.9695 329.5,86C 312.001,79.1665 294.001,74.1665 275.5,71C 276.448,70.5172 277.448,70.3505 278.5,70.5 Z"/></g>
<g><path style="opacity:1" fill="#fefbf1" d="M 148.5,159.5 C 147.883,159.389 147.383,159.056 147,158.5C 144.636,161.69 142.136,164.69 139.5,167.5C 144.825,153.521 153.491,142.188 165.5,133.5C 165.736,134.247 166.07,135.08 166.5,136C 165.667,136.833 164.833,137.667 164,138.5C 163.282,137.549 162.449,137.383 161.5,138C 160.167,139.333 158.833,140.667 157.5,142C 158.167,142.333 158.833,142.667 159.5,143C 156.443,148.959 152.777,154.459 148.5,159.5 Z"/></g>
<g><path style="opacity:1" fill="#fee189" d="M 390.5,113.5 C 393.302,116.476 395.969,119.642 398.5,123C 398.167,123.333 397.833,123.667 397.5,124C 403.333,133.167 409.167,142.333 415,151.5C 414.533,148.437 413.866,145.437 413,142.5C 416.333,147.167 419.667,151.833 423,156.5C 423.654,157.696 424.154,157.696 424.5,156.5C 420.027,146.221 415.027,136.221 409.5,126.5C 409.846,125.304 410.346,125.304 411,126.5C 416.667,136.5 422.333,146.5 428,156.5C 429.564,159.462 429.731,162.462 428.5,165.5C 435.004,179.338 440.337,193.672 444.5,208.5C 444.323,215.134 443.823,215.134 443,208.5C 442.501,213.489 442.334,218.489 442.5,223.5C 442.167,223.5 441.833,223.5 441.5,223.5C 441.665,220.482 441.498,217.482 441,214.5C 435.549,204.267 431.215,193.6 428,182.5C 428,184.5 428,186.5 428,188.5C 425.566,185.068 424.732,181.401 425.5,177.5C 421.486,170.133 417.986,162.466 415,154.5C 407.163,145.659 400.496,135.992 395,125.5C 395.311,126.935 395.145,128.268 394.5,129.5C 396.577,132.624 397.743,135.958 398,139.5C 394.697,134.031 391.197,128.698 387.5,123.5C 387.957,122.702 388.624,122.369 389.5,122.5C 390.363,123.463 391.03,123.463 391.5,122.5C 390.728,120.189 389.728,117.856 388.5,115.5C 387.34,113.797 388.007,113.131 390.5,113.5 Z"/></g>
<g><path style="opacity:1" fill="#fcf6e3" d="M 367.5,142.5 C 373.473,150.425 378.973,158.759 384,167.5C 384.667,168.5 384.667,169.5 384,170.5C 382.414,168.33 381.08,165.996 380,163.5C 379.346,162.304 378.846,162.304 378.5,163.5C 382.6,170.367 386.1,177.367 389,184.5C 379.83,171.154 372.663,157.154 367.5,142.5 Z"/></g>
<g><path style="opacity:1" fill="#fff9e9" d="M 241.5,158.5 C 247.858,158.523 247.858,159.523 241.5,161.5C 240.833,161.333 240.167,161.167 239.5,161C 240.381,160.292 241.047,159.458 241.5,158.5 Z"/></g>
<g><path style="opacity:1" fill="#fcedc3" d="M 148.5,159.5 C 143.604,164.948 139.437,170.948 136,177.5C 135.735,175.837 136.235,174.337 137.5,173C 136.775,170.82 137.441,168.986 139.5,167.5C 142.136,164.69 144.636,161.69 147,158.5C 147.383,159.056 147.883,159.389 148.5,159.5 Z"/></g>
<g><path style="opacity:1" fill="#fff4d6" d="M 131.5,180.5 C 132.043,180.56 132.376,180.893 132.5,181.5C 131.785,184.709 130.618,187.709 129,190.5C 129.192,187.066 130.025,183.732 131.5,180.5 Z"/></g>
<g><path style="opacity:1" fill="#ffe7a3" d="M 446.5,168.5 C 454.06,187.315 457.227,206.982 456,227.5C 454.78,217.522 453.78,207.522 453,197.5C 450.511,187.885 448.344,178.218 446.5,168.5 Z"/></g>
<g><path style="opacity:1" fill="#fff2d0" d="M 80.5,191.5 C 79.528,194.132 78.1947,196.465 76.5,198.5C 77.2737,191.073 79.4403,184.073 83,177.5C 82.6165,181.801 81.4498,185.968 79.5,190C 79.5699,190.765 79.9033,191.265 80.5,191.5 Z"/></g>
<g><path style="opacity:1" fill="#fffaec" d="M 73.5,188.5 C 74.647,192.646 74.8136,196.98 74,201.5C 71.1361,209.092 68.4694,216.758 66,224.5C 68.1702,212.494 70.6702,200.494 73.5,188.5 Z"/></g>
<g><path style="opacity:1" fill="#feefc0" d="M 398.5,199.5 C 401.248,205.159 402.748,211.159 403,217.5C 400.981,211.613 399.481,205.613 398.5,199.5 Z"/></g>
<g><path style="opacity:1" fill="#feeebd" d="M 205.5,200.5 C 206.124,200.917 206.457,201.584 206.5,202.5C 205.667,205.833 204.833,209.167 204,212.5C 203.779,208.43 204.279,204.43 205.5,200.5 Z"/></g>
<g><path style="opacity:1" fill="#fff2d0" d="M 210.5,198.5 C 211.097,198.735 211.43,199.235 211.5,200C 210.536,203.894 209.369,207.727 208,211.5C 207.878,207.019 208.711,202.685 210.5,198.5 Z"/></g>
<g><path style="opacity:1" fill="#feecb8" d="M 444.5,208.5 C 445.65,213.316 445.816,218.316 445,223.5C 444.667,221.833 444.333,220.167 444,218.5C 443.501,222.821 443.334,227.154 443.5,231.5C 442.527,229.052 442.194,226.385 442.5,223.5C 442.334,218.489 442.501,213.489 443,208.5C 443.823,215.134 444.323,215.134 444.5,208.5 Z"/></g>
<g><path style="opacity:1" fill="#c2aa62" d="M 257.5,95.5 C 258.499,143.33 258.832,191.33 258.5,239.5C 262.767,239.797 266.934,239.464 271,238.5C 307.762,239.33 344.595,239.83 381.5,240C 340.168,240.5 298.835,240.667 257.5,240.5C 257.5,192.167 257.5,143.833 257.5,95.5 Z"/></g>
<g><path style="opacity:1" fill="#fee18a" d="M 444.5,259.5 C 445.268,260.263 445.768,261.263 446,262.5C 447.202,260.323 447.702,257.989 447.5,255.5C 447.089,251.537 447.922,247.87 450,244.5C 450.667,255.5 450.667,266.5 450,277.5C 446.869,280.868 444.869,284.868 444,289.5C 443.531,279.528 443.698,269.528 444.5,259.5 Z"/></g>
<g><path style="opacity:1" fill="#ffe69d" d="M 75.5,227.5 C 75.6708,237.654 75.8374,247.987 76,258.5C 77.6694,268.839 79.0027,279.172 80,289.5C 77.1747,278.203 74.6747,266.87 72.5,255.5C 73.5014,246.159 74.5014,236.826 75.5,227.5 Z"/></g>
<g><path style="opacity:1" fill="#fffbf1" d="M 267.5,248.5 C 270.1,251.447 269.933,254.447 267,257.5C 266.505,254.469 266.671,251.469 267.5,248.5 Z"/></g>
<g><path style="opacity:1" fill="#16130c" d="M 326.5,253.5 C 333.492,253.976 334.825,256.809 330.5,262C 325.667,262.5 323.5,260.333 324,255.5C 324.995,254.934 325.828,254.267 326.5,253.5 Z"/></g>
<g><path style="opacity:1" fill="#5c512f" d="M 317.5,263.5 C 318.468,261.393 318.802,259.059 318.5,256.5C 316.585,256.216 314.919,256.549 313.5,257.5C 311.167,257.5 308.833,257.5 306.5,257.5C 303.5,256.167 300.5,256.167 297.5,257.5C 295.167,257.5 292.833,257.5 290.5,257.5C 289.081,256.549 287.415,256.216 285.5,256.5C 285.198,259.059 285.532,261.393 286.5,263.5C 286.217,264.289 285.717,264.956 285,265.5C 284.502,262.183 284.335,258.85 284.5,255.5C 296.167,255.5 307.833,255.5 319.5,255.5C 319.665,258.85 319.498,262.183 319,265.5C 318.283,264.956 317.783,264.289 317.5,263.5 Z"/></g>
<g><path style="opacity:1" fill="#0b0905" d="M 153.5,280.5 C 153.5,281.167 153.833,281.5 154.5,281.5C 155.436,285.735 155.769,290.069 155.5,294.5C 154.178,294.67 153.011,294.337 152,293.5C 145,283.833 138,274.167 131,264.5C 130.333,273.833 130.333,283.167 131,292.5C 131.75,293.126 132.584,293.626 133.5,294C 130.833,294.667 128.167,294.667 125.5,294C 126.931,293.535 128.097,292.701 129,291.5C 129.667,281.5 129.667,271.5 129,261.5C 128.028,259.695 126.861,258.028 125.5,256.5C 128.784,255.343 132.118,255.176 135.5,256C 141.718,264.045 147.718,272.211 153.5,280.5 Z"/></g>
<g><path style="opacity:1" fill="#0d0b06" d="M 290.5,257.5 C 288.674,259.147 287.34,261.147 286.5,263.5C 285.532,261.393 285.198,259.059 285.5,256.5C 287.415,256.216 289.081,256.549 290.5,257.5 Z"/></g>
<g><path style="opacity:1" fill="#070603" d="M 306.5,257.5 C 306.333,269.171 306.5,280.838 307,292.5C 308.067,293.191 309.234,293.691 310.5,294C 304.5,294.667 298.5,294.667 292.5,294C 293.872,293.598 295.205,293.098 296.5,292.5C 297.499,280.852 297.832,269.186 297.5,257.5C 300.5,256.167 303.5,256.167 306.5,257.5 Z"/></g>
<g><path style="opacity:1" fill="#080603" d="M 313.5,257.5 C 314.919,256.549 316.585,256.216 318.5,256.5C 318.802,259.059 318.468,261.393 317.5,263.5C 316.649,261.118 315.316,259.118 313.5,257.5 Z"/></g>
<g><path style="opacity:1" fill="#feebb1" d="M 447.5,255.5 C 447.702,257.989 447.202,260.323 446,262.5C 445.768,261.263 445.268,260.263 444.5,259.5C 444.577,255.123 445.077,250.79 446,246.5C 446.181,249.695 446.681,252.695 447.5,255.5 Z"/></g>
<g><path style="opacity:1" fill="#6b5e36" d="M 154.5,258.5 C 155.833,266.167 155.833,273.833 154.5,281.5C 153.833,281.5 153.5,281.167 153.5,280.5C 154.492,273.352 154.825,266.019 154.5,258.5 Z"/></g>
<g><path style="opacity:1" fill="#2d2717" d="M 155.5,294.5 C 155.769,290.069 155.436,285.735 154.5,281.5C 155.833,273.833 155.833,266.167 154.5,258.5C 153.571,257.685 152.571,256.852 151.5,256C 154.167,255.333 156.833,255.333 159.5,256C 158.584,256.374 157.75,256.874 157,257.5C 156.831,270.007 156.331,282.34 155.5,294.5 Z"/></g>
<g><path style="opacity:1" fill="#fff7e0" d="M 432.5,216.5 C 431.353,226.058 431.353,237.058 432.5,249.5C 430.789,257.762 429.955,266.096 430,274.5C 432.584,269.082 434.584,263.416 436,257.5C 436.167,258.5 436.333,259.5 436.5,260.5C 434.098,270.795 431.098,280.795 427.5,290.5C 427.851,288.131 428.018,285.797 428,283.5C 427,286.167 426,288.833 425,291.5C 424.667,290.833 424.333,290.167 424,289.5C 423.333,290.833 422.667,292.167 422,293.5C 421.601,293.272 421.435,292.938 421.5,292.5C 429.145,268.096 432.312,243.096 431,217.5C 432.107,218.712 432.607,218.379 432.5,216.5 Z"/></g>
<g><path style="opacity:1" fill="#110f09" d="M 189.5,279.5 C 183.5,279.5 177.5,279.5 171.5,279.5C 171.232,281.099 171.566,282.432 172.5,283.5C 173.458,290.598 177.458,293.098 184.5,291C 190.707,287.616 191.041,288.283 185.5,293C 168.947,298.127 161.781,291.96 164,274.5C 168.922,265.238 176.089,263.071 185.5,268C 188.672,271.181 190.006,275.014 189.5,279.5 Z"/></g>
<g><path style="opacity:1" fill="#0d0b06" d="M 211.5,276.5 C 213.39,283.781 217.39,289.614 223.5,294C 218.167,294.667 212.833,294.667 207.5,294C 208.428,293.612 209.095,292.945 209.5,292C 208.47,288.771 206.804,285.938 204.5,283.5C 202.719,286.091 200.719,288.425 198.5,290.5C 199.889,287.393 201.555,284.393 203.5,281.5C 200.537,276.406 197.204,271.572 193.5,267C 197.833,266.333 202.167,266.333 206.5,267C 205.328,268.868 205.495,270.702 207,272.5C 207.876,274.635 209.376,275.969 211.5,276.5 Z"/></g>
<g><path style="opacity:1" fill="#0b0905" d="M 251.5,266.5 C 253.155,274.952 254.155,283.619 254.5,292.5C 254.918,293.222 255.584,293.722 256.5,294C 254.667,294.167 252.833,294.333 251,294.5C 248.698,294.4 246.698,293.733 245,292.5C 239.286,296.801 233.952,296.468 229,291.5C 228.667,284.167 228.333,276.833 228,269.5C 227.25,268.874 226.416,268.374 225.5,268C 229.06,266.763 232.727,266.263 236.5,266.5C 236.169,274.86 236.502,283.193 237.5,291.5C 240.291,293.04 242.791,292.706 245,290.5C 245.667,283.5 245.667,276.5 245,269.5C 244.5,269 244,268.5 243.5,268C 246.168,267.433 248.834,266.933 251.5,266.5 Z"/></g>
<g><path style="opacity:1" fill="#100e08" d="M 272.5,294.5 C 272.5,294.167 272.5,293.833 272.5,293.5C 275.139,292.294 275.972,290.294 275,287.5C 271.477,285.099 267.644,283.266 263.5,282C 257.745,275.863 258.412,270.53 265.5,266C 270.229,265.004 274.729,265.504 279,267.5C 279.808,269.579 279.641,271.579 278.5,273.5C 276.783,268.584 273.45,266.417 268.5,267C 264.892,268.957 264.559,271.457 267.5,274.5C 272.489,275.989 276.989,278.322 281,281.5C 283.12,289.289 280.287,293.623 272.5,294.5 Z"/></g>
<g><path style="opacity:1" fill="#050402" d="M 330.5,265.5 C 332.31,274.111 333.144,283.111 333,292.5C 333.75,293.126 334.584,293.626 335.5,294C 330.833,294.667 326.167,294.667 321.5,294C 322.416,293.626 323.25,293.126 324,292.5C 324.667,285.167 324.667,277.833 324,270.5C 323.25,269.874 322.416,269.374 321.5,269C 324.662,267.973 327.662,266.806 330.5,265.5 Z"/></g>
<g><path style="opacity:1" fill="#090704" d="M 345.5,265.5 C 346.5,265.5 347.5,265.5 348.5,265.5C 348.343,266.873 348.51,268.207 349,269.5C 354.655,264.272 360.155,264.272 365.5,269.5C 370.306,265.361 375.64,264.528 381.5,267C 382.126,267.75 382.626,268.584 383,269.5C 383.333,277.167 383.667,284.833 384,292.5C 384.75,293.126 385.584,293.626 386.5,294C 382.167,294.667 377.833,294.667 373.5,294C 374,293.5 374.5,293 375,292.5C 375.831,284.812 375.665,277.145 374.5,269.5C 371.799,268.131 369.299,268.464 367,270.5C 366.333,277.833 366.333,285.167 367,292.5C 367.5,293 368,293.5 368.5,294C 364.167,294.667 359.833,294.667 355.5,294C 356.416,293.626 357.25,293.126 358,292.5C 358.667,285.167 358.667,277.833 358,270.5C 354.801,267.871 351.801,268.204 349,271.5C 348.333,278.5 348.333,285.5 349,292.5C 349.75,293.126 350.584,293.626 351.5,294C 346.833,294.667 342.167,294.667 337.5,294C 338.416,293.626 339.25,293.126 340,292.5C 340.667,285.167 340.667,277.833 340,270.5C 339.25,269.874 338.416,269.374 337.5,269C 340.309,267.907 342.976,266.74 345.5,265.5 Z"/></g>
<g><path style="opacity:1" fill="#0f0d07" d="M 415.5,279.5 C 409.5,279.5 403.5,279.5 397.5,279.5C 397.232,281.099 397.566,282.432 398.5,283.5C 399.5,290.652 403.5,293.152 410.5,291C 416.707,287.616 417.041,288.283 411.5,293C 395.048,297.994 387.882,291.828 390,274.5C 394.726,266.219 401.56,263.719 410.5,267C 414.795,270.093 416.462,274.26 415.5,279.5 Z"/></g>
<g><path style="opacity:1" fill="#f2d47a" d="M 175.5,266.5 C 177.722,266.178 179.556,266.845 181,268.5C 181.498,271.817 181.665,275.15 181.5,278.5C 178.167,278.5 174.833,278.5 171.5,278.5C 170.741,273.687 172.075,269.687 175.5,266.5 Z"/></g>
<g><path style="opacity:1" fill="#f2d57b" d="M 401.5,266.5 C 403.722,266.178 405.556,266.845 407,268.5C 408.316,271.688 408.816,275.022 408.5,278.5C 405.167,278.5 401.833,278.5 398.5,278.5C 397.769,273.927 398.769,269.927 401.5,266.5 Z"/></g>
<g><path style="opacity:1" fill="#2d2819" d="M 211.5,276.5 C 212.688,273.959 214.022,271.459 215.5,269C 215.355,268.228 215.022,267.561 214.5,267C 216.833,266.333 219.167,266.333 221.5,267C 220.5,267.333 219.5,267.667 218.5,268C 216.302,271.023 213.969,273.856 211.5,276.5 Z"/></g>
<g><path style="opacity:1" fill="#584d2c" d="M 251.5,266.5 C 252.209,265.596 253.209,265.263 254.5,265.5C 254.5,274.5 254.5,283.5 254.5,292.5C 254.155,283.619 253.155,274.952 251.5,266.5 Z"/></g>
<g><path style="opacity:1" fill="#b39d5a" d="M 189.5,279.5 C 184.025,280.489 178.358,280.822 172.5,280.5C 172.5,281.5 172.5,282.5 172.5,283.5C 171.566,282.432 171.232,281.099 171.5,279.5C 177.5,279.5 183.5,279.5 189.5,279.5 Z"/></g>
<g><path style="opacity:1" fill="#a99455" d="M 415.5,279.5 C 410.025,280.489 404.358,280.822 398.5,280.5C 398.5,281.5 398.5,282.5 398.5,283.5C 397.566,282.432 397.232,281.099 397.5,279.5C 403.5,279.5 409.5,279.5 415.5,279.5 Z"/></g>
<g><path style="opacity:1" fill="#ffeebd" d="M 427.5,290.5 C 427.59,293.152 426.924,295.485 425.5,297.5C 424.833,298.167 424.167,298.833 423.5,299.5C 422.778,299.918 422.278,300.584 422,301.5C 421.833,301 421.667,300.5 421.5,300C 422.409,298.211 422.576,296.377 422,294.5C 421.333,295.833 420.667,297.167 420,298.5C 419.595,296.225 420.095,294.225 421.5,292.5C 421.435,292.938 421.601,293.272 422,293.5C 422.667,292.167 423.333,290.833 424,289.5C 424.333,290.167 424.667,290.833 425,291.5C 426,288.833 427,286.167 428,283.5C 428.018,285.797 427.851,288.131 427.5,290.5 Z"/></g>
<g><path style="opacity:1" fill="#1d1911" d="M 266.5,293.5 C 266.158,294.338 265.492,294.672 264.5,294.5C 263.07,294.579 261.736,294.246 260.5,293.5C 259.353,291.235 259.186,288.902 260,286.5C 261.694,289.358 263.861,291.691 266.5,293.5 Z"/></g>
<g><path style="opacity:1" fill="#0e0c06" d="M 198.5,290.5 C 198.36,292.124 199.027,293.29 200.5,294C 197.833,294.667 195.167,294.667 192.5,294C 194.887,293.436 196.887,292.27 198.5,290.5 Z"/></g>
<g><path style="opacity:1" fill="#5f5330" d="M 266.5,293.5 C 268.5,293.5 270.5,293.5 272.5,293.5C 272.5,293.833 272.5,294.167 272.5,294.5C 269.833,295.833 267.167,295.833 264.5,294.5C 265.492,294.672 266.158,294.338 266.5,293.5 Z"/></g>
<g><path style="opacity:1" fill="#fffcf4" d="M 425.5,297.5 C 421.361,308.786 416.361,319.786 410.5,330.5C 408.596,330.738 407.262,331.738 406.5,333.5C 404.823,335.54 403.156,337.54 401.5,339.5C 405.822,330.188 410.155,320.855 414.5,311.5C 415.689,310.571 417.022,310.238 418.5,310.5C 418.687,308.436 419.187,306.436 420,304.5C 420.667,301.833 421.333,301.833 422,304.5C 423.009,302.975 423.509,301.308 423.5,299.5C 424.167,298.833 424.833,298.167 425.5,297.5 Z"/></g>
<g><path style="opacity:1" fill="#fee18a" d="M 452.5,303.5 C 453.097,303.735 453.43,304.235 453.5,305C 449.408,315.926 446.574,327.093 445,338.5C 446.615,336.095 447.281,336.095 447,338.5C 442,345.5 437,352.5 432,359.5C 426.333,365.833 420.667,372.167 415,378.5C 413.202,380.972 410.868,382.639 408,383.5C 407.333,382.833 407.333,382.167 408,381.5C 414.333,375.167 420.667,368.833 427,362.5C 427.333,359.833 427.667,357.167 428,354.5C 437.765,338.302 445.932,321.302 452.5,303.5 Z"/></g>
<g><path style="opacity:1" fill="#fff6de" d="M 195.5,307.5 C 198.073,312.979 200.906,318.313 204,323.5C 199.329,319.16 196.496,313.826 195.5,307.5 Z"/></g>
<g><path style="opacity:1" fill="#fffbf2" d="M 407.5,342.5 C 408.833,339.833 410.167,337.167 411.5,334.5C 412.315,333.571 413.148,332.571 414,331.5C 413.882,336.405 411.716,340.072 407.5,342.5 Z"/></g>
<g><path style="opacity:1" fill="#ffe9ac" d="M 410.5,330.5 C 409.378,332.052 408.878,333.718 409,335.5C 409.915,334.672 410.581,333.672 411,332.5C 411.464,333.094 411.631,333.761 411.5,334.5C 410.167,337.167 408.833,339.833 407.5,342.5C 406.483,344.599 405.15,345.599 403.5,345.5C 403.835,341.761 405.168,338.094 407.5,334.5C 407.376,333.893 407.043,333.56 406.5,333.5C 407.262,331.738 408.596,330.738 410.5,330.5 Z"/></g>
<g><path style="opacity:1" fill="#fee18a" d="M 86.5,310.5 C 92.4703,319.325 98.3036,328.325 104,337.5C 114.041,348.539 123.708,359.873 133,371.5C 145.833,381 158.667,390.5 171.5,400C 167.935,400.036 164.602,399.036 161.5,397C 155.5,393 149.5,389 143.5,385C 136.636,377.802 129.47,370.968 122,364.5C 112.91,351.987 103.576,339.654 94,327.5C 91.4879,321.812 88.9879,316.145 86.5,310.5 Z"/></g>
<g><path style="opacity:1" fill="#fffaef" d="M 396.5,343.5 C 395.751,344.531 395.085,345.698 394.5,347C 391.898,347.883 389.731,349.383 388,351.5C 387.283,350.956 386.783,350.289 386.5,349.5C 390.464,346.037 394.298,342.37 398,338.5C 397.866,340.189 397.366,341.856 396.5,343.5 Z"/></g>
<g><path style="opacity:1" fill="#ffe59b" d="M 401.5,339.5 C 399.7,341.828 398.533,344.495 398,347.5C 392.63,352.702 387.464,358.035 382.5,363.5C 381.577,364.303 380.577,364.47 379.5,364C 381.007,363.163 381.507,361.996 381,360.5C 379.887,362.329 378.387,363.163 376.5,363C 379.685,360.116 382.518,356.949 385,353.5C 385.692,352.563 385.525,351.897 384.5,351.5C 384.833,350.5 385.5,349.833 386.5,349.5C 386.783,350.289 387.283,350.956 388,351.5C 389.731,349.383 391.898,347.883 394.5,347C 395.085,345.698 395.751,344.531 396.5,343.5C 398.167,342.167 399.833,340.833 401.5,339.5 Z"/></g>
<g><path style="opacity:1" fill="#fffaed" d="M 384.5,351.5 C 385.525,351.897 385.692,352.563 385,353.5C 382.518,356.949 379.685,360.116 376.5,363C 378.387,363.163 379.887,362.329 381,360.5C 381.507,361.996 381.007,363.163 379.5,364C 380.577,364.47 381.577,364.303 382.5,363.5C 380.761,366.41 378.428,368.91 375.5,371C 374.833,371.667 374.167,371.667 373.5,371C 374.451,370.282 374.617,369.449 374,368.5C 370.896,370.791 367.729,372.624 364.5,374C 366.208,371.957 368.208,370.29 370.5,369C 360.443,371.422 360.109,370.422 369.5,366C 374.369,360.963 379.369,356.13 384.5,351.5 Z"/></g>
<g><path style="opacity:1" fill="#fff8e6" d="M 108.5,355.5 C 110.833,357.167 112.833,359.167 114.5,361.5C 121.24,369.745 128.573,377.578 136.5,385C 138.078,386.094 139.745,386.928 141.5,387.5C 149.876,392.363 157.876,397.863 165.5,404C 164.944,404.383 164.611,404.883 164.5,405.5C 155.528,399.677 146.528,393.844 137.5,388C 126.643,376.798 115.809,366.298 105,356.5C 103.385,354.989 103.385,353.656 105,352.5C 106.039,353.71 107.206,354.71 108.5,355.5 Z"/></g>
<g><path style="opacity:1" fill="#ffeebd" d="M 399.5,365.5 C 399.833,365.5 400.167,365.5 400.5,365.5C 398.431,368.573 395.764,370.906 392.5,372.5C 394.5,369.833 396.833,367.5 399.5,365.5 Z"/></g>
<g><path style="opacity:1" fill="#fee18b" d="M 107.5,367.5 C 114.076,372.555 119.243,378.555 123,385.5C 118.524,380.934 113.857,376.601 109,372.5C 108.392,370.846 107.892,369.179 107.5,367.5 Z"/></g>
<g><path style="opacity:1" fill="#fee393" d="M 436.5,363.5 C 437.525,363.897 437.692,364.563 437,365.5C 430.65,374.857 422.817,382.357 413.5,388C 421.005,379.662 428.672,371.495 436.5,363.5 Z"/></g>
<g><path style="opacity:1" fill="#fee495" d="M 114.5,361.5 C 123.527,370.194 132.527,378.861 141.5,387.5C 139.745,386.928 138.078,386.094 136.5,385C 128.573,377.578 121.24,369.745 114.5,361.5 Z"/></g>
<g><path style="opacity:1" fill="#fffbf1" d="M 392.5,372.5 C 387.729,376.769 383.062,381.269 378.5,386C 376.5,386.667 374.5,386.667 372.5,386C 379.051,381.232 385.718,376.732 392.5,372.5 Z"/></g>
<g><path style="opacity:1" fill="#f8f1e0" d="M 175.5,384.5 C 176.167,385.5 176.833,386.5 177.5,387.5C 172.057,385.945 167.39,383.112 163.5,379C 167.528,380.51 171.528,382.343 175.5,384.5 Z"/></g>
<g><path style="opacity:1" fill="#fefaf0" d="M 359.5,376.5 C 361.379,376.393 361.712,376.893 360.5,378C 357.328,379.752 354.328,381.752 351.5,384C 347.874,385.488 344.207,386.488 340.5,387C 342.349,385.907 344.016,384.574 345.5,383C 350.608,381.61 355.274,379.444 359.5,376.5 Z"/></g>
<g><path style="opacity:1" fill="#fffaee" d="M 300.5,385.5 C 302.564,385.687 304.564,386.187 306.5,387C 303.634,388.252 300.634,388.252 297.5,387C 298.737,386.768 299.737,386.268 300.5,385.5 Z"/></g>
<g><path style="opacity:1" fill="#ffeec0" d="M 175.5,384.5 C 178.889,385.631 182.222,386.964 185.5,388.5C 185.833,387.833 186.167,387.167 186.5,386.5C 190.34,388.921 194.34,391.088 198.5,393C 196.793,393.195 195.126,393.195 193.5,393C 197.734,396.952 202.734,399.619 208.5,401C 206.833,401.667 205.167,401.667 203.5,401C 194.615,396.726 185.948,392.226 177.5,387.5C 176.833,386.5 176.167,385.5 175.5,384.5 Z"/></g>
<g><path style="opacity:1" fill="#fff1ca" d="M 397.5,376.5 C 392.575,381.318 387.575,386.151 382.5,391C 381.833,391.667 381.167,391.667 380.5,391C 383.039,388.63 385.372,386.13 387.5,383.5C 390.271,381.233 392.938,378.733 395.5,376C 396.437,375.308 397.103,375.475 397.5,376.5 Z"/></g>
<g><path style="opacity:1" fill="#fff9ea" d="M 282.5,391.5 C 285.85,391.335 289.183,391.502 292.5,392C 288.691,393.588 284.691,393.922 280.5,393C 281.416,392.722 282.082,392.222 282.5,391.5 Z"/></g>
<g><path style="opacity:1" fill="#fef1c9" d="M 312.5,391.5 C 317.507,391.01 318.174,391.843 314.5,394C 311.833,394.667 309.167,394.667 306.5,394C 308.611,393.155 310.611,392.322 312.5,391.5 Z"/></g>
<g><path style="opacity:1" fill="#fff8e4" d="M 210.5,400.5 C 210.917,399.876 211.584,399.543 212.5,399.5C 216.434,400.854 220.434,402.021 224.5,403C 221.428,402.937 218.428,403.104 215.5,403.5C 214.274,401.722 212.607,400.722 210.5,400.5 Z"/></g>
<g><path style="opacity:1" fill="#fffbf0" d="M 345.5,399.5 C 346.552,399.351 347.552,399.517 348.5,400C 343.221,401.973 338.221,404.473 333.5,407.5C 329.798,408.339 326.131,408.839 322.5,409C 330.213,405.671 337.879,402.504 345.5,399.5 Z"/></g>
<g><path style="opacity:1" fill="#fee391" d="M 394.5,403.5 C 395.239,403.369 395.906,403.536 396.5,404C 390.361,409.567 383.361,413.234 375.5,415C 381.897,411.141 388.23,407.308 394.5,403.5 Z"/></g>
<g><path style="opacity:1" fill="#fffaef" d="M 229.5,409.5 C 229.735,408.903 230.235,408.57 231,408.5C 248.991,412.872 267.157,416.372 285.5,419C 281.221,420.244 276.888,420.577 272.5,420C 257.913,417.413 243.58,413.913 229.5,409.5 Z"/></g>
<g><path style="opacity:1" fill="#fee393" d="M 343.5,415.5 C 344.873,415.343 346.207,415.51 347.5,416C 341.021,418.409 334.688,421.075 328.5,424C 329.5,424.333 330.5,424.667 331.5,425C 321.151,426.622 310.818,427.955 300.5,429C 314.861,424.378 329.195,419.878 343.5,415.5 Z"/></g>
<g><path style="opacity:1" fill="#fee28e" d="M 208.5,417.5 C 222.876,421.511 237.209,425.677 251.5,430C 249.167,430.667 246.833,430.667 244.5,430C 233.167,426.667 221.833,423.333 210.5,420C 209.244,419.583 208.577,418.75 208.5,417.5 Z"/></g>
<g><path style="opacity:1" fill="#feeebf" d="M 258.5,420.5 C 259.873,420.343 261.207,420.51 262.5,421C 260.881,421.236 259.881,422.069 259.5,423.5C 253.489,423.199 247.489,422.699 241.5,422C 247.348,421.827 253.015,421.327 258.5,420.5 Z"/></g>
<g><path style="opacity:1" fill="#fee9a9" d="M 218.5,429.5 C 219.097,428.861 219.93,428.528 221,428.5C 227.107,430.235 233.273,431.735 239.5,433C 237.167,433.667 234.833,433.667 232.5,433C 227.814,431.829 223.148,430.662 218.5,429.5 Z"/></g>
<g><path style="opacity:1" fill="#fee7a2" d="M 337.5,433.5 C 338.552,433.351 339.552,433.517 340.5,434C 339.051,435.117 337.384,435.784 335.5,436C 323.066,437.429 310.733,439.429 298.5,442C 285.5,442.667 272.5,442.667 259.5,442C 285.897,441.406 311.897,438.573 337.5,433.5 Z"/></g>
<g><path style="opacity:1" fill="#ffe9a9" d="M 314.5,443.5 C 316.527,443.338 318.527,443.505 320.5,444C 305.729,447.9 290.729,449.234 275.5,448C 288.678,446.751 301.678,445.251 314.5,443.5 Z"/></g>
<g><path style="opacity:1" fill="#ffe9a9" d="M 218.5,445.5 C 219.622,444.844 220.955,444.511 222.5,444.5C 236.81,445.943 251.143,447.109 265.5,448C 261.952,449.089 258.285,449.589 254.5,449.5C 242.502,448.167 230.502,446.834 218.5,445.5 Z"/></g>
</svg>
